<svg xmlns="http://www.w3.org/2000/svg" width="34.996" height="27.341" viewBox="0 0 34.996 27.341"><path d="M35,14.354a3.417,3.417,0,0,0-1.609-2.9A4.1,4.1,0,0,0,30.9,4.1H28.067A2.732,2.732,0,0,0,25.7,0H9.3A2.732,2.732,0,0,0,6.93,4.1H4.1a4.1,4.1,0,0,0-2.492,7.355,3.414,3.414,0,0,0-.239,5.632,3.413,3.413,0,0,0-.217,5.29,2.733,2.733,0,0,0,1.581,4.962H32.262a2.733,2.733,0,0,0,1.581-4.962,3.413,3.413,0,0,0-.217-5.29A3.414,3.414,0,0,0,35,14.354ZM9.3,1.367H25.7a1.367,1.367,0,1,1,0,2.734H9.3a1.367,1.367,0,0,1,0-2.734ZM1.367,8.2A2.737,2.737,0,0,1,4.1,5.468H28.845a.684.684,0,1,1,0,1.367H6.152A2.053,2.053,0,0,0,4.1,8.886a.684.684,0,0,0,1.367,0A.684.684,0,0,1,6.152,8.2H28.845a2.05,2.05,0,0,0,1.933-2.734H30.9a2.734,2.734,0,1,1,0,5.468H4.1A2.737,2.737,0,0,1,1.367,8.2Zm0,6.152A2.053,2.053,0,0,1,3.418,12.3H12.3a2.051,2.051,0,0,1,0,4.1H3.418A2.053,2.053,0,0,1,1.367,14.354Zm11.62,11.62H2.734a1.367,1.367,0,0,1,0-2.734H12.987a1.367,1.367,0,0,1,0,2.734Zm-.684-4.1H3.418a2.051,2.051,0,0,1,0-4.1H12.3a2.051,2.051,0,0,1,0,4.1Zm19.959,4.1H15.353a2.724,2.724,0,0,0,0-2.734H32.262a1.367,1.367,0,1,1,0,2.734Zm1.367-6.152a2.053,2.053,0,0,1-2.051,2.051H15.036a3.4,3.4,0,0,0,.617-1.367h1.436a.684.684,0,0,0,0-1.367H15.652a3.4,3.4,0,0,0-.617-1.367H31.579A2.053,2.053,0,0,1,33.629,19.822ZM31.579,16.4H15.036a3.4,3.4,0,0,0,.617-1.367h1.436a.684.684,0,0,0,0-1.367H15.652a3.4,3.4,0,0,0-.617-1.367H31.579a2.051,2.051,0,1,1,0,4.1Zm0,0" transform="translate(0)" fill="#427e25"/><path d="M280.684,200a.684.684,0,1,0,.684.684A.685.685,0,0,0,280.684,200Zm0,0" transform="translate(-260.861 -186.33)" fill="#427e25"/><path d="M390.684,200a.684.684,0,1,0,.684.684A.684.684,0,0,0,390.684,200Zm0,0" transform="translate(-363.343 -186.33)" fill="#427e25"/><path d="M322.734,200h-2.051a.684.684,0,0,0,0,1.367h2.051a.684.684,0,1,0,0-1.367Zm0,0" transform="translate(-298.127 -186.33)" fill="#427e25"/><path d="M432.187,200h-1.5a.684.684,0,1,0,0,1.367h1.5a.684.684,0,1,0,0-1.367Zm0,0" transform="translate(-400.609 -186.33)" fill="#427e25"/><path d="M430.684,281.367h1.5a.684.684,0,1,0,0-1.367h-1.5a.684.684,0,1,0,0,1.367Zm0,0" transform="translate(-400.609 -260.861)" fill="#427e25"/><path d="M390.684,281.367a.684.684,0,1,0-.684-.684A.684.684,0,0,0,390.684,281.367Zm0,0" transform="translate(-363.343 -260.861)" fill="#427e25"/><path d="M320.684,281.367h2.051a.684.684,0,1,0,0-1.367h-2.051a.684.684,0,0,0,0,1.367Zm0,0" transform="translate(-298.127 -260.861)" fill="#427e25"/><path d="M280.684,281.367a.684.684,0,1,0-.684-.684A.685.685,0,0,0,280.684,281.367Zm0,0" transform="translate(-260.861 -260.861)" fill="#427e25"/></svg>