<svg xmlns="http://www.w3.org/2000/svg" width="35.59" height="25.257" viewBox="0 0 35.59 25.257"><path d="M43.016,98.943h-.574V94.351a2.3,2.3,0,0,0-2.3-2.3V82.3a2.3,2.3,0,0,0-2.3-2.3H13.74a2.3,2.3,0,0,0-2.3,2.3v9.759a2.3,2.3,0,0,0-2.3,2.3v4.592H8.574A.574.574,0,0,0,8,99.517v2.3a.574.574,0,0,0,.574.574h.574v2.3a.574.574,0,0,0,.574.574h1.722a.573.573,0,0,0,.563-.461l.482-2.409H39.1l.482,2.409a.573.573,0,0,0,.563.461h1.722a.574.574,0,0,0,.574-.574v-2.3h.574a.574.574,0,0,0,.574-.574v-2.3A.574.574,0,0,0,43.016,98.943ZM12.592,82.3a1.15,1.15,0,0,1,1.148-1.148H37.85A1.15,1.15,0,0,1,39,82.3v9.759H37.85v-2.3a2.3,2.3,0,0,0-2.3-2.3H28.665a2.3,2.3,0,0,0-2.3,2.3v2.3H25.221v-2.3a2.3,2.3,0,0,0-2.3-2.3H16.036a2.3,2.3,0,0,0-2.3,2.3v2.3H12.592ZM36.7,89.759v2.3H27.517v-2.3a1.15,1.15,0,0,1,1.148-1.148h6.888A1.15,1.15,0,0,1,36.7,89.759Zm-12.629,0v2.3H14.888v-2.3a1.15,1.15,0,0,1,1.148-1.148h6.888A1.15,1.15,0,0,1,24.073,89.759ZM10.3,94.351A1.15,1.15,0,0,1,11.444,93.2h28.7a1.15,1.15,0,0,1,1.148,1.148v4.592h-31Zm.677,9.759H10.3v-1.722h1.022Zm30.32,0h-.677l-.344-1.722h1.022Zm1.148-2.87H9.148v-1.148H42.442Z" transform="translate(-8 -80)" fill="#427e25"/></svg>