<svg xmlns="http://www.w3.org/2000/svg" width="35.592" height="27.53" viewBox="0 0 35.592 27.53"><g transform="translate(0 0)"><g transform="translate(0 0)"><g transform="translate(0 0)"><path d="M34.23,63.229l-.776-.821-2.723-7.339A3.193,3.193,0,0,0,27.759,53H8.312a3.182,3.182,0,0,0-2.974,2.069L2.654,62.316,1.536,63.351A4.37,4.37,0,0,0,0,66.674V77.367A3.179,3.179,0,0,0,3.179,80.53H5.187a3.179,3.179,0,0,0,3.179-3.164V75.815H27.226v1.551a3.179,3.179,0,0,0,3.179,3.164h2.008a3.179,3.179,0,0,0,3.179-3.164V66.393A4.41,4.41,0,0,0,34.23,63.229ZM6.769,55.586a1.645,1.645,0,0,1,1.544-1.065H27.766a1.656,1.656,0,0,1,1.544,1.065l2.373,6.388H29.911a5.216,5.216,0,0,0-10.32,0H4.4Zm21.591,6.388H21.127a3.694,3.694,0,0,1,7.232,0ZM6.845,77.367a1.654,1.654,0,0,1-1.658,1.643H3.179a1.654,1.654,0,0,1-1.658-1.643V75.374a3.089,3.089,0,0,0,1.658.441H6.845Zm27.226,0a1.654,1.654,0,0,1-1.658,1.643H30.405a1.659,1.659,0,0,1-1.658-1.643V75.815h3.666a3.089,3.089,0,0,0,1.658-.441v1.993Zm-1.658-3.072H3.179a1.641,1.641,0,0,1-1.658-1.627V66.674A2.855,2.855,0,0,1,2.532,64.5l.03-.03L3.6,63.5H32.4l.73.783c.008.015.03.023.038.038a2.866,2.866,0,0,1,.9,2.076v6.274h.008A1.646,1.646,0,0,1,32.413,74.294Z" transform="translate(0 -53)" fill="#427e25"/></g></g><g transform="translate(3.574 13.537)"><g transform="translate(0 0)"><path d="M53.464,231h-5.7a.763.763,0,0,0-.761.761v3.955a.763.763,0,0,0,.761.76h5.7a.763.763,0,0,0,.761-.76v-3.955A.763.763,0,0,0,53.464,231Zm-.761,3.955H48.521v-2.434H52.7Z" transform="translate(-47 -231)" fill="#427e25"/></g></g><g transform="translate(24.793 13.537)"><g transform="translate(0 0)"><path d="M332.464,231h-5.7a.763.763,0,0,0-.76.761v3.955a.763.763,0,0,0,.76.76h5.7a.763.763,0,0,0,.761-.76v-3.955A.763.763,0,0,0,332.464,231Zm-.76,3.955h-4.183v-2.434H331.7Z" transform="translate(-326 -231)" fill="#427e25"/></g></g><g transform="translate(13.362 16.732)"><g transform="translate(0 0)"><path d="M183.807,273h-7.346a.761.761,0,1,0,0,1.521h7.346a.761.761,0,1,0,0-1.521Z" transform="translate(-175.7 -273)" fill="#427e25"/></g></g><g transform="translate(13.362 14.374)"><g transform="translate(0 0)"><path d="M183.807,242h-7.346a.761.761,0,1,0,0,1.521h7.346a.761.761,0,0,0,0-1.521Z" transform="translate(-175.7 -242)" fill="#427e25"/></g></g></g></svg>