<svg xmlns="http://www.w3.org/2000/svg" width="21.196" height="21.2" viewBox="0 0 21.196 21.2"><g transform="translate(-0.449)"><path d="M21.591,6.233A7.746,7.746,0,0,0,21.1,3.661,5.431,5.431,0,0,0,18,.559,7.766,7.766,0,0,0,15.424.066C14.289.012,13.929,0,11.051,0S7.812.012,6.681.062A7.749,7.749,0,0,0,4.11.555a5.173,5.173,0,0,0-1.88,1.226A5.22,5.22,0,0,0,1.008,3.657,7.767,7.767,0,0,0,.515,6.229C.461,7.364.449,7.724.449,10.6s.012,3.239.062,4.369A7.746,7.746,0,0,0,1,17.543a5.43,5.43,0,0,0,3.1,3.1,7.768,7.768,0,0,0,2.572.493c1.13.05,1.491.062,4.369.062s3.239-.012,4.369-.062a7.745,7.745,0,0,0,2.572-.493,5.423,5.423,0,0,0,3.1-3.1,7.773,7.773,0,0,0,.493-2.572c.05-1.131.062-1.491.062-4.369s0-3.239-.054-4.369Zm-1.909,8.656a5.811,5.811,0,0,1-.364,1.967A3.517,3.517,0,0,1,17.3,18.869a5.831,5.831,0,0,1-1.967.364c-1.118.05-1.454.062-4.282.062s-3.168-.012-4.282-.062a5.808,5.808,0,0,1-1.967-.364,3.262,3.262,0,0,1-1.218-.791A3.3,3.3,0,0,1,2.8,16.86a5.832,5.832,0,0,1-.364-1.967c-.05-1.118-.062-1.454-.062-4.282s.012-3.168.062-4.282A5.808,5.808,0,0,1,2.8,4.361a3.222,3.222,0,0,1,.8-1.218A3.291,3.291,0,0,1,4.81,2.352a5.835,5.835,0,0,1,1.967-.364c1.118-.05,1.454-.062,4.282-.062s3.168.012,4.282.062a5.811,5.811,0,0,1,1.967.364,3.26,3.26,0,0,1,1.218.791,3.3,3.3,0,0,1,.791,1.218,5.834,5.834,0,0,1,.364,1.967c.05,1.118.062,1.454.062,4.282s-.012,3.16-.062,4.278Zm0,0" fill="#fff"/><path d="M130.4,124.5a5.446,5.446,0,1,0,5.446,5.446A5.447,5.447,0,0,0,130.4,124.5Zm0,8.979a3.533,3.533,0,1,1,3.533-3.533A3.533,3.533,0,0,1,130.4,133.479Zm0,0" transform="translate(-119.344 -119.344)" fill="#fff"/><path d="M364.993,89.873a1.271,1.271,0,1,1-1.272-1.271A1.272,1.272,0,0,1,364.993,89.873Zm0,0" transform="translate(-347.009 -84.932)" fill="#fff"/></g></svg>