<?xml version="1.0" encoding="utf-8"?>
<!-- Generator: Adobe Illustrator 24.1.2, SVG Export Plug-In . SVG Version: 6.00 Build 0)  -->
<svg version="1.1" id="Capa_1" xmlns="http://www.w3.org/2000/svg" xmlns:xlink="http://www.w3.org/1999/xlink" x="0px" y="0px"
	 viewBox="0 0 592.9 592.9" style="enable-background:new 0 0 592.9 592.9;" xml:space="preserve">
<style type="text/css">
	.st0{fill:#A30000;}
</style>
<g>
	<path class="st0" d="M295.8,0C132.6,0,0,132.6,0,297.1s132.6,295.8,295.8,295.8s297.1-132.6,297.1-297.1S460.3,0,295.8,0z
		 M51,297.1C51,160.7,160.6,51,295.8,51c57.4,0,109.6,19.1,151.7,52.3L103.3,447.6C70.1,406.7,51,353.2,51,297.1z M295.8,541.9
		c-59.9,0-114.8-21.7-156.8-57.4L484.5,139c35.7,42.1,57.4,96.9,57.4,156.8C541.9,432.2,430.9,541.9,295.8,541.9z M369.8,144.1
		l-86.7,86.7c-20.4-14-23-48.5-6.4-80.3c19.1-30.6,52.3-45.9,75.2-31.9C360.8,123.7,367.2,133.9,369.8,144.1z M138,159.4
		c9.7-35.3,38.4-58.2,64.2-51.2c25.8,7.1,38.9,41.4,29.2,76.7c-9.7,35.3-38.4,58.2-64.2,51.2C141.4,229,128.3,194.7,138,159.4z
		 M441.8,437.4c-34.4,12.6-69.7,2.4-78.9-22.7c-9.2-25.1,11.2-55.7,45.6-68.3c34.4-12.6,69.7-2.4,78.9,22.7
		C496.6,394.2,476.2,424.8,441.8,437.4z M358.3,300.9l91.8-91.8c5.1,2.5,8.9,6.4,12.8,11.5c15.3,21.7,3.8,56.1-25.5,77.8
		C409.3,317.5,376.1,318.8,358.3,300.9z M332.8,327.7c20.4,47.2,14,103.3-23,142.8c-37,40.8-51,1.3-79-40.8L332.8,327.7z
		 M256.3,258.9L153,362.1c-39.5-21.7-71.4-30.6-35.7-68.9C153,253.8,209.1,242.3,256.3,258.9z"/>
</g>
</svg>
