<svg xmlns="http://www.w3.org/2000/svg" width="35.592" height="30.25" viewBox="0 0 35.592 30.25"><path d="M34.194,31.608h-4a8.245,8.245,0,0,0,3.66-3.093,1.127,1.127,0,0,0,.065-1.037c-.039-.089-.088-.2-.142-.312a10.831,10.831,0,0,0,1.551-3.341,12.328,12.328,0,0,0,.185-3.937,1.448,1.448,0,0,0-.966-1.211c-.6-2.886-1.411-3.347-1.685-3.5A1.316,1.316,0,0,0,31.72,15.1c-1.469.559-1.474,1.872-1.479,3.029,0,.277-.009.56-.027.842A1.684,1.684,0,0,0,29,20.076a4.072,4.072,0,0,1-.489.976,7.2,7.2,0,0,0-.755-.348,1.083,1.083,0,0,0-.76,0L23.95,21.871a1.1,1.1,0,0,0-.564.489,8.1,8.1,0,0,0-.38.793,4.08,4.08,0,0,1-.466-.174V16.186A1.186,1.186,0,0,0,21.353,15H7.118a1.186,1.186,0,0,0-1.186,1.186v.808a6.674,6.674,0,0,0-1.679-.215C0,16.779,0,21.453,0,22.99c0,3.434,1.669,5.653,4.253,5.653a7.5,7.5,0,0,0,2.023-.289A6.481,6.481,0,0,0,8.7,31.608H3.766a1.288,1.288,0,0,0-1.394,1.186V33.98c0,1.33,1.316,2.373,3,2.373H32.593c1.68,0,3-1.042,3-2.373V32.794a1.288,1.288,0,0,0-1.394-1.186ZM32.141,16.2a.135.135,0,0,1,.14.007c.1.056.588.431,1.036,2.394-.5.021-1.145.065-1.9.162.008-.221.009-.437.01-.638C31.432,16.9,31.492,16.449,32.141,16.2Zm-2.01,4.234a.505.505,0,0,1,.4-.335c.11-.023.218-.039.339-.059A19.685,19.685,0,0,1,34,19.766h.039a.278.278,0,0,1,.294.237,11.132,11.132,0,0,1-.158,3.539,8.931,8.931,0,0,1-1.03,2.4,13.583,13.583,0,0,0-3.624-4.271A5.254,5.254,0,0,0,30.131,20.436Zm-5.724,2.527,2.973-1.136c3.175,1.249,5.1,5.322,5.457,6.086a7.68,7.68,0,0,1-4.1,3.034,9.887,9.887,0,0,1-2.91.661h-.782a4.693,4.693,0,0,1-1.218-.219c-.034-.145-.079-.345-.125-.584-.282-1.469-.775-5.161.7-7.841Zm-3.613,7.73a11.251,11.251,0,0,0,1.818.7c.018.083.034.154.049.22H19.751A6.547,6.547,0,0,0,20.795,30.693Zm1.585-.627a7.92,7.92,0,0,1-2.225-1.154A10.22,10.22,0,0,1,17.929,26.3a.356.356,0,0,1,.107-.433l.022-.021a21.072,21.072,0,0,1,2.6-1.916c.094-.059.189-.123.3-.189a.434.434,0,0,1,.457-.01,4.745,4.745,0,0,0,1.2.543,14.714,14.714,0,0,0-.237,5.8Zm-5.134-8.109a.2.2,0,0,1,.129-.132c.629-.237.916.046,1.649.985.126.161.26.333.405.505-.647.434-1.179.836-1.581,1.16a4.244,4.244,0,0,1-.6-2.518ZM5.931,24.711a4.245,4.245,0,0,1-1.679.372c-.451,0-.694-1.079-.694-2.094,0-2.651.4-2.651.694-2.651a2.529,2.529,0,0,1,1.679.549Zm-4.745-1.72c0-2.341.349-5.026,3.067-5.026a5.345,5.345,0,0,1,1.679.262V19.5a3.963,3.963,0,0,0-1.679-.35c-1.737,0-1.88,1.816-1.88,3.838,0,2.054.7,3.28,1.88,3.28a5.2,5.2,0,0,0,1.679-.3v.3a6.419,6.419,0,0,0,.075.926,6.364,6.364,0,0,1-1.753.26c-1.92,0-3.067-1.67-3.067-4.466Zm6.07,4.479a5.22,5.22,0,0,1-.138-1.2V16.186H21.353V22.5a1.614,1.614,0,0,0-.9.178c-.171-.2-.336-.4-.493-.6-.672-.861-1.507-1.935-3.006-1.364a1.378,1.378,0,0,0-.813.81c-.309.8-.04,2.052.806,3.814a1.494,1.494,0,0,0-.027,1.581,11.413,11.413,0,0,0,2.508,2.93c.1.08.211.153.319.227a5.294,5.294,0,0,1-3.732,1.531H12.456a5.309,5.309,0,0,1-5.2-4.14ZM34.4,33.98c0,.643-.83,1.186-1.809,1.186H5.368c-.979,0-1.809-.543-1.809-1.186V32.848a.378.378,0,0,1,.208-.054H34.194a.378.378,0,0,1,.208.054Z" transform="translate(0 -6.103)" fill="#427e25"/><path d="M22,6.525a.593.593,0,0,0,1.186,0,1.532,1.532,0,0,1,.463-1.112,2.737,2.737,0,0,0,0-3.707A1.532,1.532,0,0,1,23.186.593.593.593,0,0,0,22,.593a2.685,2.685,0,0,0,.723,1.854,1.566,1.566,0,0,1,0,2.224A2.685,2.685,0,0,0,22,6.525Z" transform="translate(-8.951)" fill="#427e25"/><path d="M16,6.525a.593.593,0,0,0,1.186,0,1.532,1.532,0,0,1,.463-1.112,2.737,2.737,0,0,0,0-3.707A1.532,1.532,0,0,1,17.186.593.593.593,0,0,0,16,.593a2.685,2.685,0,0,0,.723,1.854,1.566,1.566,0,0,1,0,2.224A2.685,2.685,0,0,0,16,6.525Z" transform="translate(-6.51)" fill="#427e25"/><path d="M28,6.525a.593.593,0,0,0,1.186,0,1.532,1.532,0,0,1,.463-1.112,2.737,2.737,0,0,0,0-3.707A1.532,1.532,0,0,1,29.186.593.593.593,0,0,0,28,.593a2.685,2.685,0,0,0,.723,1.854,1.566,1.566,0,0,1,0,2.224A2.685,2.685,0,0,0,28,6.525Z" transform="translate(-11.392)" fill="#427e25"/></svg>