<svg xmlns="http://www.w3.org/2000/svg" width="35.59" height="30.746" viewBox="0 0 35.59 30.746"><g transform="translate(0)"><g transform="translate(0)"><path d="M31.543,48.388v-9.9a3.653,3.653,0,0,0-3.649-3.649H7.7a3.653,3.653,0,0,0-3.649,3.649v9.9A5.291,5.291,0,0,0,0,53.523V60.9a1.06,1.06,0,0,0,1.06,1.06H4.047v2.564a1.06,1.06,0,0,0,2.121,0V61.964H29.422v2.564a1.06,1.06,0,0,0,2.121,0V61.964H34.53a1.06,1.06,0,0,0,1.06-1.06V53.523A5.29,5.29,0,0,0,31.543,48.388Zm-25.375-9.9A1.53,1.53,0,0,1,7.7,36.964h20.2a1.53,1.53,0,0,1,1.529,1.529v9.749h-3.5V46.568a5.032,5.032,0,0,0-5.026-5.026H14.7a5.032,5.032,0,0,0-5.026,5.026v1.673h-3.5ZM23.8,46.568v1.673H11.792V46.568A2.909,2.909,0,0,1,14.7,43.662h6.195A2.909,2.909,0,0,1,23.8,46.568ZM2.121,59.844V53.523a3.165,3.165,0,0,1,3.162-3.162H30.308a3.165,3.165,0,0,1,3.162,3.162v6.321Z" transform="translate(0 -34.843)" fill="#828282"/></g></g></svg>