<svg xmlns="http://www.w3.org/2000/svg" width="30" height="22.823" viewBox="0 0 30 22.823"><g transform="translate(0 0)"><g transform="translate(12.393 17.64)"><path d="M212.116,358.88a2.592,2.592,0,1,0,2.6,2.591A2.6,2.6,0,0,0,212.116,358.88Z" transform="translate(-209.516 -358.88)" fill="#427e25"/></g><g transform="translate(8.152 11.486)"><path d="M150.994,257.457a8.983,8.983,0,0,0-12.673-.017,1.75,1.75,0,0,0,2.476,2.474,5.468,5.468,0,0,1,7.714.01,1.75,1.75,0,1,0,2.482-2.467Z" transform="translate(-137.807 -254.833)" fill="#427e25"/></g><g transform="translate(0 0)"><path d="M29.488,66.652A20.54,20.54,0,0,0,.513,66.637a1.75,1.75,0,0,0,2.478,2.471,17.024,17.024,0,0,1,24.017.012,1.75,1.75,0,1,0,2.48-2.469Z" transform="translate(0 -60.665)" fill="#427e25"/></g><g transform="translate(4.178 5.888)"><path d="M91.76,164.462a14.615,14.615,0,0,0-20.617-.014,1.75,1.75,0,0,0,2.477,2.472,11.1,11.1,0,0,1,15.659.011,1.75,1.75,0,1,0,2.481-2.469Z" transform="translate(-70.628 -160.2)" fill="#427e25"/></g></g></svg>