<svg width="18" height="18" viewBox="0 0 18 18" fill="none" xmlns="http://www.w3.org/2000/svg">
<path d="M8.99999 6.65683C7.70976 6.65683 6.65683 7.70976 6.65683 9C6.65683 10.2902 7.70976 11.3432 8.99999 11.3432C10.2902 11.3432 11.3432 10.2902 11.3432 9C11.3432 7.70976 10.2902 6.65683 8.99999 6.65683ZM16.0277 9C16.0277 8.02968 16.0365 7.06816 15.982 6.0996C15.9275 4.9746 15.6709 3.97617 14.8482 3.15351C14.0238 2.3291 13.0271 2.07421 11.9021 2.01972C10.9318 1.96523 9.9703 1.97402 9.00175 1.97402C8.03144 1.97402 7.06991 1.96523 6.10136 2.01972C4.97636 2.07421 3.97792 2.33085 3.15527 3.15351C2.33085 3.97792 2.07597 4.9746 2.02148 6.0996C1.96698 7.06992 1.97577 8.03144 1.97577 9C1.97577 9.96855 1.96698 10.9318 2.02148 11.9004C2.07597 13.0254 2.33261 14.0238 3.15527 14.8465C3.97968 15.6709 4.97636 15.9258 6.10136 15.9803C7.07167 16.0348 8.03319 16.026 9.00175 16.026C9.97206 16.026 10.9336 16.0348 11.9021 15.9803C13.0271 15.9258 14.0256 15.6691 14.8482 14.8465C15.6726 14.0221 15.9275 13.0254 15.982 11.9004C16.0383 10.9318 16.0277 9.97031 16.0277 9ZM8.99999 12.6053C7.00487 12.6053 5.39472 10.9951 5.39472 9C5.39472 7.00488 7.00487 5.39472 8.99999 5.39472C10.9951 5.39472 12.6053 7.00488 12.6053 9C12.6053 10.9951 10.9951 12.6053 8.99999 12.6053ZM12.7529 6.08906C12.2871 6.08906 11.9109 5.71289 11.9109 5.24707C11.9109 4.78124 12.2871 4.40507 12.7529 4.40507C13.2187 4.40507 13.5949 4.78124 13.5949 5.24707C13.5951 5.35768 13.5734 5.46723 13.5311 5.56945C13.4888 5.67166 13.4268 5.76454 13.3486 5.84275C13.2704 5.92097 13.1775 5.98298 13.0753 6.02525C12.9731 6.06751 12.8635 6.0892 12.7529 6.08906Z" fill="#154B25"/>
</svg>
