<svg width="16" height="15" viewBox="0 0 16 15" fill="none" xmlns="http://www.w3.org/2000/svg">
<path d="M8.22809 1.25C4.78184 1.25 1.97809 4.05375 1.97809 7.5C1.97809 10.9462 4.78184 13.75 8.22809 13.75C11.6743 13.75 14.4781 10.9462 14.4781 7.5C14.4781 4.05375 11.6743 1.25 8.22809 1.25ZM3.22809 7.5C3.22809 6.93813 3.32559 6.39875 3.49746 5.89437L4.47809 6.875L5.72809 8.125V9.375L6.97809 10.625L7.60309 11.25V12.4569C5.14121 12.1475 3.22809 10.045 3.22809 7.5ZM12.1843 10.5456C11.7762 10.2169 11.1575 10 10.7281 10V9.375C10.7281 9.04348 10.5964 8.72554 10.362 8.49112C10.1276 8.2567 9.80961 8.125 9.47809 8.125H6.97809V6.25C7.30961 6.25 7.62755 6.1183 7.86197 5.88388C8.09639 5.64946 8.22809 5.33152 8.22809 5V4.375H8.85309C9.18461 4.375 9.50255 4.2433 9.73697 4.00888C9.97139 3.77446 10.1031 3.45652 10.1031 3.125V2.86813C11.9331 3.61125 13.2281 5.40625 13.2281 7.5C13.228 8.60294 12.8608 9.67446 12.1843 10.5456Z" fill="#154B25"/>
</svg>
