<svg width="16" height="15" viewBox="0 0 16 15" fill="none" xmlns="http://www.w3.org/2000/svg">
<path d="M14.2281 5.52975V10.875C14.2281 11.3723 14.0305 11.8492 13.6789 12.2008C13.3273 12.5525 12.8504 12.75 12.3531 12.75H4.10309C3.60581 12.75 3.12889 12.5525 2.77726 12.2008C2.42563 11.8492 2.22809 11.3723 2.22809 10.875V5.52975L8.03759 8.94825C8.0953 8.98229 8.16108 9.00024 8.22809 9.00024C8.29509 9.00024 8.36087 8.98229 8.41859 8.94825L14.2281 5.52975ZM12.3531 3C12.8144 2.99993 13.2596 3.16995 13.6035 3.47755C13.9473 3.78515 14.1657 4.20873 14.2168 4.66725L8.22809 8.19L2.23934 4.66725C2.29046 4.20873 2.50883 3.78515 2.85268 3.47755C3.19654 3.16995 3.64173 2.99993 4.10309 3H12.3531Z" fill="#154B25"/>
</svg>

