<svg width="16" height="15" viewBox="0 0 16 15" fill="none" xmlns="http://www.w3.org/2000/svg">
<path d="M10.2578 10.0687L11.3078 9.01874C11.4492 8.87907 11.6281 8.78346 11.8229 8.74352C12.0176 8.70358 12.2197 8.72103 12.4047 8.79374L13.6844 9.30468C13.8713 9.38056 14.0316 9.51008 14.145 9.67691C14.2585 9.84375 14.32 10.0404 14.3219 10.2422V12.5859C14.3208 12.7232 14.2919 12.8588 14.237 12.9846C14.1822 13.1104 14.1024 13.2238 14.0026 13.3179C13.9027 13.4121 13.7848 13.485 13.656 13.5324C13.5272 13.5799 13.3902 13.6007 13.2531 13.5937C4.28592 13.0359 2.47654 5.44218 2.13436 2.53593C2.11847 2.39321 2.13298 2.24875 2.17694 2.11204C2.2209 1.97533 2.2933 1.84949 2.38939 1.74277C2.48547 1.63606 2.60307 1.5509 2.73443 1.49289C2.86579 1.43489 3.00795 1.40536 3.15154 1.40624H5.41561C5.61764 1.40684 5.81488 1.46786 5.98195 1.58147C6.14902 1.69508 6.27828 1.85607 6.35311 2.04374L6.86404 3.32343C6.93916 3.50768 6.95833 3.70998 6.91914 3.90506C6.87996 4.10014 6.78417 4.27935 6.64373 4.4203L5.59373 5.4703C5.59373 5.4703 6.19842 9.56249 10.2578 10.0687Z" fill="#154B25"/>
</svg>

