<svg xmlns="http://www.w3.org/2000/svg" width="829.373" height="707.664" viewBox="0 0 829.373 707.664"><path d="M698.109,453.338H686.8V362.831a45.312,45.312,0,0,0-45.253-45.253V125.253A45.312,45.312,0,0,0,596.289,80H121.133A45.312,45.312,0,0,0,75.88,125.253V317.578a45.312,45.312,0,0,0-45.253,45.253v90.506H19.313A11.313,11.313,0,0,0,8,464.651V509.9a11.313,11.313,0,0,0,11.313,11.313H30.627V566.47A11.313,11.313,0,0,0,41.94,577.783H75.88a11.3,11.3,0,0,0,11.087-9.093l9.5-47.473H620.952l9.5,47.473a11.3,11.3,0,0,0,11.087,9.093h33.94A11.313,11.313,0,0,0,686.8,566.47V521.217h11.313A11.313,11.313,0,0,0,709.422,509.9V464.651A11.313,11.313,0,0,0,698.109,453.338ZM98.506,125.253a22.656,22.656,0,0,1,22.627-22.627H596.289a22.656,22.656,0,0,1,22.627,22.627V317.578H596.289V272.325a45.312,45.312,0,0,0-45.253-45.253H415.277a45.312,45.312,0,0,0-45.253,45.253v45.253H347.4V272.325a45.312,45.312,0,0,0-45.253-45.253H166.386a45.312,45.312,0,0,0-45.253,45.253v45.253H98.506ZM573.663,272.325v45.253H392.651V272.325A22.656,22.656,0,0,1,415.277,249.7H551.036a22.656,22.656,0,0,1,22.627,22.626Zm-248.892,0v45.253H143.759V272.325A22.656,22.656,0,0,1,166.386,249.7H302.145A22.656,22.656,0,0,1,324.771,272.325ZM53.253,362.831A22.656,22.656,0,0,1,75.88,340.2H641.542a22.656,22.656,0,0,1,22.626,22.626v90.506H53.253ZM66.6,555.157H53.253v-33.94H73.391Zm597.566,0h-13.35l-6.788-33.94h20.138ZM686.8,498.591H30.627V475.964H686.8Z" transform="translate(190.096 -77.912) rotate(20)" fill="#fff"/></svg>