<svg xmlns="http://www.w3.org/2000/svg" width="965.957" height="1128.225" viewBox="0 0 965.957 1128.225"><g transform="matrix(-0.391, 0.921, -0.921, -0.391, 964.613, 252.755)"><g transform="translate(0 0)"><path d="M846.282,366.487c-.99,1.791-6.928,10.768-7.729,12.654-7.47,17.743-10.3,15.34,1.649,84.616,15.2,88.174,27.357,109.452,0,139.849s-118.571-24.317-203.682-36.476S499.711,649.2,429.8,643.121s-85.135-54.714-148.968-57.754S162.283,627.923,89.308,606.645-59.637,457.677,71.07,323.884,393.323,141.5,502.751,132.408,639.56,77.67,715.552,29.035s173.285-27.357,197.6,0,57.754,127.69,18.238,191.523C896.825,276.428,856.7,347.565,846.282,366.487Z" transform="translate(0 0)" fill="none" stroke="#fff" stroke-miterlimit="10" stroke-width="2"/><path d="M16.865,431.682c15.6,33.13,39.61,36.5,76.016,33.46s75.992-30.42,124.627-15.222,63.833,45.619,121.729,57.777S448.547,456.023,475.9,452.959s148.968,30.3,212.8,9.1,48.753-73.047,45.619-121.564-21.207-60.794,0-109.452S801.2,139.849,801.2,103.373,792.078,0,716.086,0s-63.857,24.317-130.73,54.738S442.468,94.254,351.277,106.412,138.476,179.294,86.8,228-31.77,328.333,16.865,431.682Z" transform="translate(75.482 77.67)" fill="none" stroke="#fff" stroke-miterlimit="10" stroke-width="2"/><path d="M1.813,272.431c-10.3,34.992,24.247,66.873,79.032,75.992s130.706,33.436,155.047,51.7,27.357,27.239,69.913,9.119,76.063-76.133,133.769-69.936S564.2,378.82,591.557,360.511s33.437-69.818,33.437-133.675-15.2-66.9,6.079-109.452,57.777-73.047,33.46-97.27S609.8-13.322,536.843,32.273s-212.8,45.6-252.317,54.714S178.114,114.344,105.162,172.1,17.011,220.757,1.813,272.431Z" transform="translate(148.312 133.572)" fill="none" stroke="#fff" stroke-miterlimit="10" stroke-width="2"/><path d="M.979,200.126c-7.917,35.6,33.436,39.516,79.032,57.754s82.095,48.635,115.461,48.635,82.142-57.754,139.9-60.841,91.214,21.207,124.65,15.2,33.436-36.405,24.317-88.1,33.436-106.412,27.357-130.73S487.469-12.675,426.581,5.563,238.074,39,192.5,54.2,110.407,69.4,83.05,93.714,13.138,145.412.979,200.126Z" transform="translate(231.217 199.797)" fill="none" stroke="#fff" stroke-miterlimit="10" stroke-width="2"/><path d="M2.345,103.443C-11.793,137.233,41.861,146,60.1,161.2S87.48,194.634,127,197.673s97.27-33.413,121.587-39.516,57.777,0,88.174,6.079,12.159-33.436,21.207-54.714,21.207-51.7,6.079-73.047S303.25,0,254.591,0,90.519,27.428,63.115,42.626,17.543,66.967,2.345,103.443Z" transform="translate(299.764 260.004)" fill="none" stroke="#fff" stroke-miterlimit="10" stroke-width="2"/><path d="M.118,79.408c-2.639,39.422,39.516,73.047,75.992,73.047s39.516-6.079,66.873-36.476,85.135-33.436,85.135-69.913S194.657-2.593,139.943.447,3.158,33.789.118,79.408Z" transform="translate(368.887 281)" fill="none" stroke="#fff" stroke-miterlimit="10" stroke-width="2"/></g></g></svg>