<svg xmlns="http://www.w3.org/2000/svg" width="1241.581" height="1120.191" viewBox="0 0 1241.581 1120.191"><g transform="translate(349.383 0.019) rotate(30)"><g transform="translate(0.999 1)"><path d="M917.313,300.832c-1.072-1.939-7.5-11.66-8.368-13.7-8.088-19.212-11.149-16.609,1.786-91.618,16.456-95.471,29.621-118.509,0-151.422S782.347,70.422,690.193,83.586,542.063-5.277,466.365,1.306s-92.18,59.242-161.3,62.533S176.712,17.762,97.7,40.8-63.573,202.1,77.95,346.961s348.92,197.473,467.4,207.321,148.13,59.267,230.411,111.927,187.625,29.621,213.955,0,62.533-138.257,19.747-207.372C972.039,398.344,928.59,321.32,917.313,300.832Z" transform="translate(-0.999 -1)" fill="none" stroke="#fff" stroke-miterlimit="10" stroke-width="2"/><path d="M51.294,108.949C68.183,73.077,94.181,69.428,133.6,72.72S215.88,105.657,268.54,89.2s69.116-49.394,131.8-62.559S518.7,82.593,548.319,85.91s161.3-32.81,230.411-9.848,52.787,79.091,49.394,131.623-22.962,65.824,0,118.509,72.407,98.737,72.407,138.231-9.874,111.927-92.154,111.927-69.141-26.33-141.548-59.268S512.115,474.3,413.379,461.135,182.968,382.222,127.017,329.486-1.366,220.85,51.294,108.949Z" transform="translate(48.696 36.196)" fill="none" stroke="#fff" stroke-miterlimit="10" stroke-width="2"/><path d="M65.9,198.336c-11.149-37.887,26.253-72.407,85.572-82.281S293,79.852,319.353,60.079s29.621-29.493,75.7-9.874,82.357,82.434,144.839,75.724,134.94-42.786,164.561-22.962,36.2,75.6,36.2,144.737-16.456,72.432,6.582,118.509S809.8,445.3,783.466,471.532s-59.267,36.2-138.257-13.165S414.8,409,372.012,399.126,256.794,369.5,177.8,306.971,82.359,254.286,65.9,198.336Z" transform="translate(96.645 58.711)" fill="none" stroke="#fff" stroke-miterlimit="10" stroke-width="2"/><path d="M100.184,174.373c-8.572-38.551,36.2-42.786,85.572-62.533s88.888-52.66,125.015-52.66,88.939,62.533,151.473,65.875S561.006,102.093,597.21,108.6s36.2,39.418,26.33,95.394,36.2,115.218,29.621,141.548-26.228,59.242-92.154,39.495-204.107-36.2-253.449-52.66-88.888-16.456-118.509-42.786S113.349,233.615,100.184,174.373Z" transform="translate(151.226 89.256)" fill="none" stroke="#fff" stroke-miterlimit="10" stroke-width="2"/><path d="M130.754,181.966c-15.308-36.586,42.786-46.077,62.533-62.533s29.647-36.2,72.432-39.495,105.319,36.178,131.649,42.786,62.559,0,95.471-6.582S506,152.345,515.8,175.384s22.962,55.976,6.582,79.091S456.559,293.97,403.874,293.97s-177.649-29.7-207.321-46.154S147.21,221.461,130.754,181.966Z" transform="translate(196.355 121.157)" fill="none" stroke="#fff" stroke-miterlimit="10" stroke-width="2"/><path d="M157.678,169.191C154.82,126.508,200.464,90.1,239.958,90.1s42.786,6.582,72.407,39.495,92.18,36.2,92.18,75.7-36.229,52.685-95.471,49.394S160.969,218.585,157.678,169.191Z" transform="translate(241.864 137.223)" fill="none" stroke="#fff" stroke-miterlimit="10" stroke-width="2"/></g></g></svg>