<svg xmlns="http://www.w3.org/2000/svg" viewBox="0 0 496 352"><defs><style>.cls-1{fill:#154b25;}</style></defs><g id="Layer_2" data-name="Layer 2"><g id="Layer_1-2" data-name="Layer 1"><path class="cls-1" d="M488,264h-8V200a32,32,0,0,0-32-32V32A32,32,0,0,0,416,0H80A32,32,0,0,0,48,32V168a32,32,0,0,0-32,32v64H8a8,8,0,0,0-8,8v32a8,8,0,0,0,8,8h8v32a8,8,0,0,0,8,8H48a8,8,0,0,0,7.84-6.43L62.56,312H433.44l6.72,33.57A8,8,0,0,0,448,352h24a8,8,0,0,0,8-8V312h8a8,8,0,0,0,8-8V272A8,8,0,0,0,488,264ZM64,32A16,16,0,0,1,80,16H416a16,16,0,0,1,16,16V168H416V136a32,32,0,0,0-32-32H288a32,32,0,0,0-32,32v32H240V136a32,32,0,0,0-32-32H112a32,32,0,0,0-32,32v32H64ZM400,136v32H272V136a16,16,0,0,1,16-16h96A16,16,0,0,1,400,136Zm-176,0v32H96V136a16,16,0,0,1,16-16h96A16,16,0,0,1,224,136ZM32,200a16,16,0,0,1,16-16H448a16,16,0,0,1,16,16v64H32Zm9.44,136H32V312H46.24ZM464,336h-9.44l-4.8-24H464Zm16-40H16V280H480Z"/></g></g></svg>