<svg xmlns="http://www.w3.org/2000/svg" width="55.43" height="71.153" viewBox="0 0 55.43 71.153"><g transform="translate(-56.57)"><g transform="translate(56.57 0)"><path d="M110.3,202.365a1.042,1.042,0,0,0-1.956.72,25.633,25.633,0,1,1-45.126-5.758,1.042,1.042,0,1,0-1.712-1.189,27.71,27.71,0,1,0,48.794,6.227Z" transform="translate(-56.57 -168.495)" fill="#fff"/><path d="M115.027,25.254a25.468,25.468,0,0,1,18.061-7.446,25.769,25.769,0,0,1,22.055,12.564,1.042,1.042,0,1,0,1.792-1.064A27.674,27.674,0,0,0,138.2,16.2V12.754h1.344A3.854,3.854,0,0,0,143.4,8.9V7.219a6.335,6.335,0,0,0-3.889-5.809,15.311,15.311,0,0,0-12.837,0,6.335,6.335,0,0,0-3.889,5.809V8.9a3.854,3.854,0,0,0,3.85,3.85h1.344v3.44a27.522,27.522,0,0,0-14.417,7.582,1.042,1.042,0,0,0,1.469,1.479Zm11.6-14.585A1.767,1.767,0,0,1,124.865,8.9V7.219a4.32,4.32,0,0,1,2.744-3.948,12.768,12.768,0,0,1,5.479-1.187c2.844,0,8.223,1.073,8.223,5.135V8.9a1.767,1.767,0,0,1-1.765,1.765H138.2V8.763a1.042,1.042,0,0,0-1.042-1.042h-8.142a1.042,1.042,0,0,0-1.042,1.042v1.906H126.63Zm3.429-.863h6.058v6.086a27.8,27.8,0,0,0-3.029-.169,28.146,28.146,0,0,0-3.029.165Z" transform="translate(-105.373 0)" fill="#fff"/><path d="M132.9,176.488a1.042,1.042,0,0,0,1.313-.671A23.246,23.246,0,1,0,123.8,188.747a23.409,23.409,0,0,0,8.329-8.3,1.042,1.042,0,1,0-1.8-1.059,21.073,21.073,0,0,1-2.566,3.473l-1.219-1.219a1.042,1.042,0,0,0-1.474,1.474l1.216,1.216a21.24,21.24,0,0,1-13.136,5.457v-1.736a1.042,1.042,0,0,0-2.085,0V189.8a21.058,21.058,0,0,1-13.142-5.453l1.223-1.223a1.042,1.042,0,0,0-1.474-1.474l-1.223,1.223A21.056,21.056,0,0,1,91,169.727h1.74a1.042,1.042,0,1,0,0-2.085H91A21.057,21.057,0,0,1,96.454,154.5l1.223,1.224a1.042,1.042,0,1,0,1.474-1.474l-1.223-1.223a21.058,21.058,0,0,1,13.143-5.454v1.74a1.042,1.042,0,0,0,2.085,0v-1.74a21.057,21.057,0,0,1,13.143,5.454l-1.223,1.223a1.042,1.042,0,0,0,1.474,1.474l1.224-1.224a21.057,21.057,0,0,1,5.454,13.143h-1.74a1.042,1.042,0,1,0,0,2.085h1.74a21,21,0,0,1-.993,5.449,1.042,1.042,0,0,0,.67,1.312Z" transform="translate(-84.398 -125.246)" fill="#fff"/><path d="M214.689,200.9a1.043,1.043,0,0,0-1.259.3l-7.9,9.953a5.527,5.527,0,0,0-3.292,7.029l-2.6,12.433a1.042,1.042,0,0,0,1.837.861l7.9-9.949a5.527,5.527,0,0,0,3.3-7.029l2.6-12.438a1.042,1.042,0,0,0-.578-1.157ZM209.8,211.322a5.522,5.522,0,0,0-1.4-.441l3.925-4.944-1.29,6.179A5.51,5.51,0,0,0,209.8,211.322Zm-5.933,9.23a5.564,5.564,0,0,0,2.634,1.235l-3.923,4.942Zm6.707-2.755a3.45,3.45,0,1,1-1.659-4.588A3.427,3.427,0,0,1,210.577,217.8Z" transform="translate(-179.739 -172.895)" fill="#fff"/></g></g></svg>