<svg xmlns="http://www.w3.org/2000/svg" width="51.541" height="58.553" viewBox="0 0 51.541 58.553"><g transform="translate(2.082)"><path d="M42.5,0H9.559A6.973,6.973,0,0,0,2.588,6.971V9.982H-.688a1.394,1.394,0,0,0-1.394,1.394A1.394,1.394,0,0,0-.688,12.77H2.574v9.145H-.688A1.394,1.394,0,0,0-2.082,23.31,1.394,1.394,0,0,0-.688,24.7H2.574v9.145H-.688a1.394,1.394,0,0,0-1.394,1.394A1.394,1.394,0,0,0-.688,36.638H2.574v9.145H-.688a1.394,1.394,0,0,0-1.394,1.394A1.394,1.394,0,0,0-.688,48.571H2.574v3.011a6.974,6.974,0,0,0,6.971,6.971H42.488a6.973,6.973,0,0,0,6.971-6.971V6.971A6.961,6.961,0,0,0,42.5,0Zm4.182,51.583A4.2,4.2,0,0,1,42.5,55.765H9.559a4.2,4.2,0,0,1-4.182-4.182V48.571H8.638a1.394,1.394,0,1,0,0-2.788H5.377V36.638H8.638a1.394,1.394,0,1,0,0-2.788H5.377V24.7H8.638a1.394,1.394,0,0,0,0-2.788H5.377V12.77H8.638a1.394,1.394,0,1,0,0-2.788H5.377V6.971A4.2,4.2,0,0,1,9.559,2.788H42.5a4.2,4.2,0,0,1,4.182,4.182Zm0,0" fill="#154b25"/><path d="M196.055,151.148a6.762,6.762,0,1,0-6.762-6.762A6.761,6.761,0,0,0,196.055,151.148Zm0-10.749a3.973,3.973,0,1,1-3.973,3.973A3.974,3.974,0,0,1,196.055,140.4Zm0,0" transform="translate(-170.031 -122.276)" fill="#154b25"/><path d="M167.509,279a10.416,10.416,0,0,0-10.345,10.707,1.4,1.4,0,0,0,1.394,1.394h17.9a1.4,1.4,0,0,0,1.394-1.394A10.416,10.416,0,0,0,167.509,279Zm-7.445,9.313a7.51,7.51,0,0,1,14.89,0Zm0,0" transform="translate(-141.485 -247.883)" fill="#154b25"/></g></svg>