<svg xmlns="http://www.w3.org/2000/svg" width="119" height="119" viewBox="0 0 119 119"><g transform="translate(-603 -3317)"><rect width="119" height="119" rx="29" transform="translate(603 3317)" fill="rgba(145,255,240,0.58)"/><g transform="translate(629.995 3341.026)"><path d="M458.853,251.813h-3.646a1.446,1.446,0,0,0-1.14.557l-2.2,2.819a1.445,1.445,0,0,0,2.279,1.778l1.765-2.262h2.94a1.446,1.446,0,0,0,0-2.891Zm0,0" transform="translate(-386.294 -215.416)" fill="#007867"/><path d="M60.784,96.562a1.446,1.446,0,0,0-2.029.251l-2.033,2.606H50.395L45.34,82.1a3.91,3.91,0,0,0-1.387-7.565h-.822l-1.047-3.589a1.445,1.445,0,0,0-2.775.81l.811,2.78H39.35l-5.37-5.125c.114-.072.228-.146.338-.224a7.011,7.011,0,1,0-9.054-.818,7.461,7.461,0,0,0-1.133.658,5,5,0,0,0-3.621-2.79,4.869,4.869,0,0,0-3.691.822,5.016,5.016,0,0,0-2.064,3.3,5.111,5.111,0,0,0,.2,2.5,1.425,1.425,0,0,0-.2.117,1.445,1.445,0,0,0-.6.937l-2.031,11.66a3.831,3.831,0,0,0,3.014,4.468l2.434.436a3.683,3.683,0,0,0,.653.059,3.635,3.635,0,0,0,.479-.035l-.451,6.918-3.508,7.235a4.974,4.974,0,0,0-.027,4.3H13.049a1.447,1.447,0,0,0-.777.227l-11.6,7.4a1.445,1.445,0,1,0,1.554,2.437l11.246-7.172h5.5c.094.006.188.008.282.008.078,0,.155,0,.233-.008H34.9a1.446,1.446,0,0,0,1-.4l9.617-9.137H57.429a1.445,1.445,0,0,0,1.139-.557l2.467-3.162a1.446,1.446,0,0,0-.251-2.029ZM24.622,91.245a5.65,5.65,0,0,1-1.688-.4,2.333,2.333,0,0,1-1.189-2.466c.046-.274.094-.548.141-.822a18.057,18.057,0,0,0,9.078-2.632L30.625,86.9a1.447,1.447,0,0,0,.8,1.546l5.145,2.479,5.979,7.547a2.121,2.121,0,1,1-3.324,2.634l-5.167-6.522a1.443,1.443,0,0,0-.505-.4l-4.355-2.1a1.444,1.444,0,0,0-.384-.123Zm20.19,5.436-6.186-7.809a1.45,1.45,0,0,0-.359-.322,1.472,1.472,0,0,0-.15-.083l-4.46-2.149.677-3.961H42.4l4.98,17.063h-1.5a4.977,4.977,0,0,0-1.068-2.738ZM38.772,77.427h5.182a1.019,1.019,0,1,1,0,2.038h-10.3L30.73,76.946a1.446,1.446,0,0,0-1.887,2.19l2.286,1.97c-1.144,1.188-3.754,3.145-8.742,3.52l.531-3.108,1-5.871s0-.008,0-.012l.3-1.741c.289-1.686,1.727-3.458,4.894-3.458l.221,0h.036a3.514,3.514,0,0,1,2.507.963l.057.054,5.837,5.57a1.446,1.446,0,0,0,1,.4ZM26.21,62.773a4.12,4.12,0,1,1,3.365,4.753,4.124,4.124,0,0,1-3.365-4.753Zm-8.6,8.064a2.146,2.146,0,0,1,.878-1.417A2,2,0,0,1,20,69.083a2.182,2.182,0,0,1,1.715,2.528,2.147,2.147,0,0,1-.879,1.417,2,2,0,0,1-1.514.339,2.182,2.182,0,0,1-1.715-2.528Zm.483,16.8L15.657,87.2a.939.939,0,0,1-.677-1.128l1.781-10.228,4.069.73-.686,4.014-1.093,6.391A.893.893,0,0,1,18.091,87.636Zm.248,21.115a2.12,2.12,0,0,1-.983-2.833l3.63-7.489a1.43,1.43,0,0,0,.142-.536l.3-4.581a10.735,10.735,0,0,0,3.607.936l.688.117L25.4,99.053l-4.224,8.715a2.12,2.12,0,0,1-1.747,1.186H19.1A2.115,2.115,0,0,1,18.338,108.751Zm15.984.2H23.809l4.31-8.891a1.446,1.446,0,0,0,.142-.532l.314-4.537L32,96.642l4.961,6.262a4.977,4.977,0,0,0,2.1,1.552Zm0,0" transform="translate(0 -48.297)" fill="#007867"/><path d="M349.114,51.306h7.4a5.55,5.55,0,1,0-2.14-10.672,6.63,6.63,0,1,0-5.255,10.672Zm0-10.369a3.74,3.74,0,0,1,3.431,2.251,1.445,1.445,0,0,0,2.256.53,2.624,2.624,0,0,1,1.709-.622,2.66,2.66,0,0,1,0,5.319h-7.4a3.739,3.739,0,0,1,0-7.478Zm0,0" transform="translate(-292.982 -32.547)" fill="#007867"/><path d="M429.807,301.581a1.445,1.445,0,1,0-.534,1.755,1.457,1.457,0,0,0,.534-1.755Zm0,0" transform="translate(-365.305 -257.227)" fill="#007867"/></g></g></svg>