<svg xmlns="http://www.w3.org/2000/svg" width="119" height="119" viewBox="0 0 119 119"><g transform="translate(-126 -3317)"><rect width="119" height="119" rx="29" transform="translate(126 3317)" fill="rgba(145,255,178,0.58)"/><g transform="translate(151.141 3344.486)"><g transform="translate(2.685)"><g transform="translate(0)"><path d="M62.783,12.48,61.527,9.216l-2.2,2.716c-.069.087-7.034,8.567-16.2,9.875-1.739.249-3.363.572-4.933.934.431-7.125-2.477-13.922-8.656-20.25L27.1,0l-.951,3.359c-.022.071-2.13,7.325-7.483,10.591-5.865,3.59-9.6,7.558-11.4,12.12a17.8,17.8,0,0,0-.129,13.514,12.094,12.094,0,0,0,6.538,6.6,9.071,9.071,0,0,0,.888.287,18.443,18.443,0,0,0,.526,6c-1.09.1-2.132.144-3.106.144a25.779,25.779,0,0,1-7.906-1.082l-1.389,3.8a29.052,29.052,0,0,0,9.3,1.325,39.938,39.938,0,0,0,4.686-.293A15.251,15.251,0,0,0,19.1,59.562a16.7,16.7,0,0,0,12.1,4.449,31.635,31.635,0,0,0,18.808-6.741l.593-.465C56.164,52.449,73.065,39.215,62.783,12.48ZM15.24,42.446l-.032-.012a7.982,7.982,0,0,1-4.366-4.449,13.741,13.741,0,0,1,.174-10.421c1.468-3.723,4.652-7.046,9.75-10.161A22.044,22.044,0,0,0,28.786,7.72,20.791,20.791,0,0,1,33.98,23.9a29.869,29.869,0,0,0-12.015,7.062A25.6,25.6,0,0,0,15.24,42.446ZM48.116,53.612l-.607.479c-8.225,6.514-20.4,7.758-25.545,2.611a10.983,10.983,0,0,1-.951-1.088c8.278-1.885,18.368-6.759,28.73-17.953l-2.969-2.748C36.643,45.86,26.9,50.334,19.121,51.9a14.46,14.46,0,0,1-.479-5.827,20.831,20.831,0,0,1,6.18-12.256c4.168-4.17,10.345-6.789,18.877-8.007a31.3,31.3,0,0,0,16.382-8.8C66.949,38.865,53.371,49.5,48.116,53.612Z" transform="translate(-2.685)" fill="#08a537"/><path d="M372.157,231.5l3.092,2.607q1.294-1.539,2.593-3.218l-3.2-2.469C373.811,229.49,372.982,230.513,372.157,231.5Z" transform="translate(-325.455 -199.544)" fill="#08a537"/></g></g></g></g></svg>