<svg xmlns="http://www.w3.org/2000/svg" width="500.955" height="349.226" viewBox="0 0 500.955 349.226"><g transform="translate(499.892 331.142) rotate(178)"><g transform="translate(0 0)"><path d="M434.469,188.149c-.508.919-3.557,5.528-3.968,6.5-3.835,9.109-5.286,7.875.847,43.441,7.8,45.267,14.045,56.191,0,71.8S370.475,297.4,326.781,291.156s-70.236,42.134-106.128,39.013-43.707-28.09-76.478-29.65-60.861,21.847-98.325,10.924-76.466-76.478-9.363-145.165,165.44-93.632,221.619-98.3,70.236-28.1,109.249-53.07,88.962-14.045,101.446,0,29.65,65.554,9.363,98.325C460.417,141.914,439.816,178.435,434.469,188.149Z" transform="translate(0 0)" fill="none" stroke="#fff" stroke-miterlimit="10" stroke-width="2"/><path d="M8.658,221.619c8.008,17.009,20.335,18.738,39.025,17.178s39.013-15.617,63.982-7.815,32.771,23.42,62.494,29.662,56.118-26.529,70.163-28.1S320.8,248.1,353.571,237.212s25.029-37.5,23.42-62.409-10.887-31.211,0-56.191S411.323,71.8,411.323,53.07,406.642,0,367.628,0s-32.783,12.484-67.115,28.1S227.157,48.388,180.341,54.631,71.092,92.047,44.563,117.052-16.31,168.561,8.658,221.619Z" transform="translate(38.751 39.875)" fill="none" stroke="#fff" stroke-miterlimit="10" stroke-width="2"/><path d="M.931,139.862c-5.286,17.964,12.448,34.332,40.574,39.013s67.1,17.166,79.6,26.541S135.148,219.4,157,210.1s39.049-39.086,68.675-35.9,63.982,20.287,78.026,10.887,17.166-35.844,17.166-68.627-7.8-34.344,3.121-56.191,29.662-37.5,17.178-49.937-28.1-17.166-65.554,6.242S166.359,39.976,146.072,44.658,91.441,58.7,53.988,88.353,8.733,113.333.931,139.862Z" transform="translate(76.141 68.574)" fill="none" stroke="#fff" stroke-miterlimit="10" stroke-width="2"/><path d="M.5,102.742c-4.065,18.279,17.166,20.287,40.574,29.65s42.146,24.968,59.276,24.968,42.171-29.65,71.821-31.235,46.828,10.887,63.994,7.8,17.166-18.69,12.484-45.231S265.817,34.067,262.7,21.582,250.26-6.507,219,2.856,122.224,20.022,98.828,27.825s-42.146,7.8-56.191,20.287S6.745,74.653.5,102.742Z" transform="translate(118.704 102.573)" fill="none" stroke="#fff" stroke-miterlimit="10" stroke-width="2"/><path d="M1.2,53.106c-7.258,17.347,20.287,21.847,29.65,29.65S44.911,99.922,65.2,101.483,115.135,84.329,127.619,81.2s29.662,0,45.267,3.121,6.242-17.166,10.887-28.09,10.887-26.541,3.121-37.5S155.684,0,130.7,0,46.471,14.081,32.4,21.884,9.007,34.38,1.2,53.106Z" transform="translate(153.894 133.482)" fill="none" stroke="#fff" stroke-miterlimit="10" stroke-width="2"/><path d="M.061,40.767c-1.355,20.238,20.287,37.5,39.013,37.5s20.287-3.121,34.332-18.726,43.707-17.166,43.707-35.892S99.934-1.331,71.845.229,1.621,17.347.061,40.767Z" transform="translate(189.382 144.261)" fill="none" stroke="#fff" stroke-miterlimit="10" stroke-width="2"/></g></g></svg>