<svg xmlns="http://www.w3.org/2000/svg" width="119" height="119" viewBox="0 0 119 119"><g transform="translate(-603 -3694)"><rect width="119" height="119" rx="29" transform="translate(603 3694)" fill="rgba(255,251,145,0.58)"/><g transform="translate(625.54 3719.177)"><g transform="translate(0)"><path d="M71.018,49.493H62.709a17.123,17.123,0,0,0,7.6-6.423,2.341,2.341,0,0,0,.134-2.153c-.081-.185-.182-.407-.3-.648a22.5,22.5,0,0,0,3.221-6.939,25.6,25.6,0,0,0,.384-8.177,3.007,3.007,0,0,0-2.007-2.514c-1.249-5.994-2.931-6.952-3.5-7.268a2.732,2.732,0,0,0-2.37-.168c-3.05,1.162-3.061,3.888-3.071,6.291,0,.575-.018,1.163-.055,1.749a3.5,3.5,0,0,0-2.523,2.3,8.457,8.457,0,0,1-1.015,2.028,14.952,14.952,0,0,0-1.568-.722,2.249,2.249,0,0,0-1.579.006l-6.326,2.417a2.293,2.293,0,0,0-1.172,1.016,16.813,16.813,0,0,0-.79,1.647,8.476,8.476,0,0,1-.968-.362V17.464A2.464,2.464,0,0,0,44.348,15H14.783a2.464,2.464,0,0,0-2.464,2.464v1.678A13.861,13.861,0,0,0,8.833,18.7C0,18.7,0,28.4,0,31.593c0,7.131,3.467,11.74,8.833,11.74a15.585,15.585,0,0,0,4.2-.6,13.46,13.46,0,0,0,5.029,6.761H7.822a2.676,2.676,0,0,0-2.895,2.464V54.42c0,2.763,2.732,4.928,6.221,4.928H67.692c3.489,0,6.221-2.164,6.221-4.928V51.957a2.676,2.676,0,0,0-2.895-2.464Zm-4.265-32a.281.281,0,0,1,.291.015c.211.117,1.222.894,2.152,4.973-1.036.043-2.379.134-3.942.336.016-.459.02-.908.021-1.326C65.281,18.942,65.406,18.009,66.753,17.5ZM62.58,26.289a1.05,1.05,0,0,1,.825-.7c.228-.047.453-.08.7-.123a40.885,40.885,0,0,1,6.509-.57H70.7a.577.577,0,0,1,.61.493,23.12,23.12,0,0,1-.328,7.351,18.549,18.549,0,0,1-2.14,4.985,28.21,28.21,0,0,0-7.527-8.87A10.911,10.911,0,0,0,62.58,26.289ZM50.692,31.538l6.175-2.359C63.462,31.772,67.462,40.231,68.2,41.818c-.681,1.178-2.874,4.15-8.511,6.3a20.534,20.534,0,0,1-6.044,1.374H52.021a9.748,9.748,0,0,1-2.53-.456c-.07-.3-.165-.716-.26-1.213-.586-3.051-1.61-10.72,1.456-16.286Zm-7.5,16.054a23.368,23.368,0,0,0,3.776,1.444c.037.172.071.319.1.457H41.022a13.6,13.6,0,0,0,2.167-1.9Zm3.293-1.3a16.448,16.448,0,0,1-4.622-2.4,21.226,21.226,0,0,1-4.623-5.433.739.739,0,0,1,.222-.9c.016-.015.032-.03.046-.044a43.764,43.764,0,0,1,5.409-3.98c.2-.123.392-.255.629-.393a.9.9,0,0,1,.95-.021,9.855,9.855,0,0,0,2.482,1.127,30.56,30.56,0,0,0-.493,12.039ZM35.818,29.448a.411.411,0,0,1,.269-.275c1.306-.493,1.9.1,3.425,2.046.261.334.541.691.841,1.05-1.343.9-2.448,1.736-3.283,2.408-1.281-2.856-1.51-4.562-1.252-5.229Zm-23.5,5.722a8.817,8.817,0,0,1-3.486.772c-.936,0-1.441-2.241-1.441-4.349,0-5.507.833-5.507,1.441-5.507a5.253,5.253,0,0,1,3.486,1.139ZM2.464,31.6c0-4.861.724-10.438,6.369-10.438a11.1,11.1,0,0,1,3.486.543V24.35a8.23,8.23,0,0,0-3.486-.727c-3.607,0-3.905,3.771-3.905,7.97,0,4.266,1.46,6.812,3.905,6.812a10.8,10.8,0,0,0,3.486-.616v.616a13.331,13.331,0,0,0,.155,1.923,13.217,13.217,0,0,1-3.641.541c-3.988,0-6.369-3.468-6.369-9.276ZM15.07,40.9a10.841,10.841,0,0,1-.287-2.493V17.464H44.348V30.577a3.352,3.352,0,0,0-1.869.37c-.356-.407-.7-.825-1.025-1.244-1.4-1.789-3.129-4.02-6.243-2.833a2.863,2.863,0,0,0-1.689,1.682c-.642,1.654-.083,4.261,1.674,7.922a3.1,3.1,0,0,0-.055,3.284,23.7,23.7,0,0,0,5.21,6.084c.216.166.439.318.662.471a11,11,0,0,1-7.751,3.181H25.87a11.025,11.025,0,0,1-10.8-8.6ZM71.449,54.42c0,1.335-1.725,2.464-3.757,2.464H11.149c-2.033,0-3.757-1.128-3.757-2.464V52.069a.786.786,0,0,1,.431-.112h63.2a.786.786,0,0,1,.431.112Z" transform="translate(0 3.478)" fill="#888400"/><path d="M22,13.551a1.232,1.232,0,1,0,2.464,0,3.182,3.182,0,0,1,.962-2.31,5.685,5.685,0,0,0,0-7.7,3.182,3.182,0,0,1-.962-2.31,1.232,1.232,0,1,0-2.464,0,5.577,5.577,0,0,0,1.5,3.85,3.253,3.253,0,0,1,0,4.62A5.577,5.577,0,0,0,22,13.551Z" transform="translate(5.101)" fill="#888400"/><path d="M16,13.551a1.232,1.232,0,1,0,2.464,0,3.182,3.182,0,0,1,.962-2.31,5.685,5.685,0,0,0,0-7.7,3.182,3.182,0,0,1-.962-2.31,1.232,1.232,0,1,0-2.464,0,5.577,5.577,0,0,0,1.5,3.85,3.253,3.253,0,0,1,0,4.62A5.577,5.577,0,0,0,16,13.551Z" transform="translate(3.71)" fill="#888400"/><path d="M28,13.551a1.232,1.232,0,1,0,2.464,0,3.182,3.182,0,0,1,.962-2.31,5.685,5.685,0,0,0,0-7.7,3.182,3.182,0,0,1-.962-2.31,1.232,1.232,0,1,0-2.464,0,5.577,5.577,0,0,0,1.5,3.85,3.253,3.253,0,0,1,0,4.62A5.577,5.577,0,0,0,28,13.551Z" transform="translate(6.493)" fill="#888400"/></g></g></g></svg>