<svg xmlns="http://www.w3.org/2000/svg" width="119" height="119" viewBox="0 0 119 119"><g transform="translate(-126 -3694)"><rect width="119" height="119" rx="29" transform="translate(126 3694)" fill="rgba(255,145,145,0.58)"/><g transform="translate(149 3705.223)"><path d="M66.875,20.07a21.036,21.036,0,0,0-30.378.756A20.966,20.966,0,1,0,6.659,50.232,7.349,7.349,0,0,0,10.787,62.78a7.354,7.354,0,0,0,7.294,7.828,7.344,7.344,0,0,0,9.17,6.583,7.35,7.35,0,0,0,12.263,3.273c2.243-2.229,4.026-3.635,4.14-7.011A7.356,7.356,0,0,0,50.622,66.4a7.353,7.353,0,0,0,7.058-7.058,7.358,7.358,0,0,0,7.065-7.516l2.129-2.129A20.97,20.97,0,0,0,66.875,20.07ZM9.869,53.641l2-2a2.651,2.651,0,0,1,3.749,3.749l-2,2a2.651,2.651,0,0,1-3.749-3.749Zm5.576,9.639a2.634,2.634,0,0,1,.776-1.875l2-2a2.651,2.651,0,0,1,3.748,3.75l-1.765,1.765a2.779,2.779,0,0,1-2.11,1.012A2.663,2.663,0,0,1,15.445,63.28Zm8.07,8.7a2.663,2.663,0,0,1,0-3.749l1.765-1.765a2.685,2.685,0,0,1,3.984-.235,2.654,2.654,0,0,1,0,3.749l-2,2A2.653,2.653,0,0,1,23.515,71.977ZM38.2,75.154l-2,2a2.651,2.651,0,0,1-3.749,0,2.663,2.663,0,0,1,0-3.749l2-2A2.651,2.651,0,0,1,38.2,75.154ZM59.292,53.89a2.663,2.663,0,0,1-3.749,0L45.128,43.475l-3.31,3.31L52.233,57.2a2.651,2.651,0,1,1-3.749,3.749L38.246,50.71l-.177-.177-3.31,3.31.177.177L45.175,64.258a2.651,2.651,0,1,1-3.749,3.749l0,0a7.334,7.334,0,0,0-6.96-1.816,7.366,7.366,0,0,0-7.06-5.418,7.358,7.358,0,0,0-6.352-6.76,7.347,7.347,0,0,0-10.888-6.9A16.3,16.3,0,1,1,33.188,24.136L27.4,29.922l4.636,4.636a10.611,10.611,0,0,0,13.141,1.471L59.292,50.142a2.654,2.654,0,0,1,0,3.749Zm4.274-7.508-.713.713q-.122-.134-.251-.264L45.363,29.594l-1.655,1.655a5.919,5.919,0,0,1-8.361,0L34.02,29.922l6.542-6.542c15.892-14.627,37.627,7.122,23,23Z" transform="translate(0 0)" fill="#b11212"/></g></g></svg>