<svg xmlns="http://www.w3.org/2000/svg" width="60.004" height="60" viewBox="0 0 60.004 60"><g transform="translate(-0.996)"><path d="M37,15a8,8,0,1,0,8-8A8,8,0,0,0,37,15Zm8-6a6,6,0,1,1-6,6A6,6,0,0,1,45,9Z" fill="#154b25"/><path d="M44,27v2a1,1,0,0,0,2,0V27a1,1,0,0,0-2,0Z" fill="#154b25"/><path d="M46,3V1a1,1,0,0,0-2,0V3a1,1,0,0,0,2,0Z" fill="#154b25"/><path d="M59,16a1,1,0,0,0,0-2H57a1,1,0,0,0,0,2Z" fill="#154b25"/><path d="M31,16h2a1,1,0,0,0,0-2H31a1,1,0,0,0,0,2Z" fill="#154b25"/><path d="M55.606,4.394a1,1,0,0,0-1.414,0L52.778,5.808a1,1,0,1,0,1.414,1.414l1.414-1.414A1,1,0,0,0,55.606,4.394Z" fill="#154b25"/><path d="M34.394,25.606a1,1,0,0,0,1.414,0l1.414-1.414a1,1,0,0,0-1.414-1.414l-1.414,1.414a1,1,0,0,0,0,1.414Z" fill="#154b25"/><path d="M54.192,22.778a1,1,0,0,0-1.414,1.414c1.538,1.538,1.6,1.708,2.122,1.708a1,1,0,0,0,.707-1.707Z" fill="#154b25"/><path d="M35.808,4.394a1,1,0,0,0-1.414,1.414c1.537,1.538,1.594,1.707,2.121,1.707a1,1,0,0,0,.707-1.707Z" fill="#154b25"/><path d="M58,44c-7.632,0-6.9.037-6.851-.073a3.48,3.48,0,0,0-.722-3.9l-6.89-6.89a5.01,5.01,0,0,0-7.074,0L31.5,38.1a2,2,0,0,1-2.826,0L18.577,28A6.99,6.99,0,1,0,8.431,19.6a4.089,4.089,0,0,0-4.868.583,4,4,0,0,0,0,5.654l.367.367a3.953,3.953,0,0,0-1.757,6.633L13.346,44H9a4,4,0,0,0,0,8h2v5a3,3,0,0,0,3,3h1a3,3,0,0,0,3-3V52H48.026a4.987,4.987,0,1,0,7.948,0H58a3,3,0,0,0,3-3V47a3,3,0,0,0-3-3ZM37.877,34.547a3.007,3.007,0,0,1,4.246,0l6.89,6.891A1.5,1.5,0,0,1,47.918,44a1.65,1.65,0,0,1-1.1-.506l-6.109-6.12A1,1,0,0,0,40,37.08c-.553,0-.625.211-2.459,2.047l-2.122-2.122ZM40,39.5,44.5,44h-9Zm-7.083.012,1.088-1.088,2.123,2.123L32.675,44H24.694l-1.3-1.3,4.059-3.04a3.991,3.991,0,0,0,5.464-.153ZM15,17a4.99,4.99,0,0,1,1.529,9.743,4.393,4.393,0,0,0-.9-.168l-5.521-5.51A4.971,4.971,0,0,1,15,17ZM4.971,21.593a2.041,2.041,0,0,1,2.839,0l.437.428c.079.1-.128-.117,6.227,6.226a.957.957,0,0,0,.746.284c1.275.046,1.679.611,2.512,1.444l-.288.193a1,1,0,1,0,1.112,1.662l.618-.413,4.012,4.011a1,1,0,0,0,1.389,1.389l1.432,1.433-4.039,3.025C6.629,25.978,7.855,27.151,7.357,26.793c-.1-.066.513.513-2.38-2.38a2,2,0,0,1-.006-2.82ZM7,48a2,2,0,0,1,2-2h6.346l4,4H9a2,2,0,0,1-2-2Zm9,9a1,1,0,0,1-1,1H14a1,1,0,0,1-1-1V52h3Zm39-2a3,3,0,1,1-3-3A3,3,0,0,1,55,55Zm4-6a1,1,0,0,1-1,1H22.174L3.587,31.413a2,2,0,0,1,0-2.826,2.064,2.064,0,0,1,2.826,0l17.12,17.119A1.012,1.012,0,0,0,24.24,46H58a1,1,0,0,1,1,1Z" fill="#154b25"/><circle cx="1" cy="1" r="1" transform="translate(51 54)" fill="#154b25"/></g></svg>